<svg width="140" height="13" viewBox="0 0 140 13" fill="none" xmlns="http://www.w3.org/2000/svg">
<path fill-rule="evenodd" clip-rule="evenodd" d="M21.4559 6.9798C21.4559 3.94523 20.5019 2.57187 18.7283 2.57187C16.9537 2.57187 16.1007 3.94523 16.1007 6.9798C16.1007 10.0302 17.0538 11.3877 18.8284 11.3877C20.603 11.3877 21.4559 10.0302 21.4559 6.9798ZM13.1218 6.99744C13.1218 3.54408 15.5815 1.19666 18.7783 1.19666C22.0586 1.19666 24.4349 3.45958 24.4349 6.96308C24.4349 10.4332 21.9751 12.7629 18.7783 12.7629C15.4981 12.7629 13.1218 10.5 13.1218 6.99744ZM7.99971 1.19693V2.65479H9.50634V8.90686H9.35614L4.68607 1.19693H0.000244141V2.65479H1.43918V10.7677H0.000244141V12.2256H4.43481V10.7677H2.92912V3.82851H3.07932L8.25097 12.3769H10.9953V2.65479H12.4352V1.19693H7.99971ZM32.9706 4.28118C32.9706 5.55518 32.4013 6.05754 31.0959 6.05754H29.6403V2.5884H31.146C32.5849 2.5884 32.9706 3.1409 32.9706 4.28118ZM31.196 10.7673H29.6403V7.41511H31.0125C32.2511 7.41511 32.5349 7.9184 32.5515 9.14133L32.5682 9.7124C32.5682 11.5556 33.3387 12.461 35.0623 12.461C36.5689 12.461 37.2383 11.4544 37.5563 10.1312L36.5689 9.81268C36.3343 10.5658 36.1341 10.8007 35.8995 10.8007C35.5648 10.8007 35.4137 10.6335 35.3803 9.91297L35.3302 9.25926C35.2802 7.95183 34.5941 7.01304 32.4857 6.82826V6.71126C35.079 6.40947 35.8995 5.32026 35.8995 3.99611C35.8995 2.60418 34.7776 1.1974 31.4473 1.1974H25.406V2.65526H26.9117V10.7673H25.406V12.226H31.196V10.7673ZM68.8367 8.63925H70.309C71.0294 10.5159 71.9491 11.3711 73.7237 11.3711C74.9114 11.3711 75.5808 10.7852 75.5808 9.91325C75.5808 8.91846 74.5195 8.65338 72.9205 8.254L72.7863 8.22046C70.9793 7.78403 68.9368 7.16375 68.9368 4.70025C68.9368 2.65553 70.6604 1.19675 72.803 1.19675C74.0083 1.19675 75.0458 1.64989 75.6151 2.42061L75.9655 1.23018H77.4388V5.15246H75.9655C75.2637 3.32503 74.4432 2.58775 73.0209 2.58775C71.8991 2.58775 71.2964 3.24239 71.2964 3.99639C71.2964 5.05974 72.4261 5.33332 73.9858 5.71103L74.1752 5.75696C75.9655 6.19153 77.9413 6.77839 77.9413 9.17596C77.9413 11.2708 76.2845 12.7621 73.8906 12.7621C72.5184 12.7621 71.3131 12.1929 70.6938 11.4212L70.2923 12.7287H68.8367V8.63925ZM41.6062 10.7674H39.8826V12.2253H46.0751V10.7674H44.3515V2.45394H44.7696C46.1251 2.45394 46.4098 2.90616 47.0291 5.63894H48.3512V1.19666H37.6065V5.63894H38.9286C39.5479 2.90616 39.8326 2.45394 41.1881 2.45394H41.6062V10.7674ZM49.9414 10.7674H51.448V2.65544H49.9414V1.19666H55.6647V2.65544H54.1757V5.80608H58.4768V2.65544H56.9711V1.19666H62.7111V2.65544H61.2044V10.7674H62.7111V12.2253H56.9711V10.7674H58.4768V7.21473H54.1757V10.7674H55.6647V12.2253H49.9414V10.7674ZM83.3634 10.7674H81.6398V12.2253H87.8323V10.7674H86.1087V2.45394H86.5268C87.8823 2.45394 88.167 2.90616 88.7863 5.63894H90.1084V1.19666H79.3636V5.63894H80.6858C81.3051 2.90616 81.5897 2.45394 82.9452 2.45394H83.3634V10.7674ZM97.3049 6.05754C98.6103 6.05754 99.1786 5.55518 99.1786 4.28118C99.1786 3.1409 98.7939 2.5884 97.3559 2.5884H95.8493V6.05754H97.3049ZM95.8493 10.7673H97.405V12.226H91.6149V10.7673H93.1206V2.65526H91.6149V1.1974H97.6563C100.988 1.1974 102.108 2.60418 102.108 3.99611C102.108 5.32026 101.288 6.40947 98.6938 6.71126V6.82826C100.802 7.01304 101.489 7.95183 101.539 9.25926L101.589 9.91297C101.623 10.6335 101.774 10.8007 102.108 10.8007C102.343 10.8007 102.543 10.5658 102.778 9.81268L103.765 10.1312C103.447 11.4544 102.778 12.461 101.271 12.461C99.5477 12.461 98.7781 11.5556 98.7781 9.7124L98.7605 9.14133C98.7447 7.9184 98.4601 7.41511 97.2214 7.41511H95.8493V10.7673ZM105.941 10.7674H104.435V12.2253H115.062V7.86751H113.607C113.205 10.1982 113.004 10.8009 111.314 10.8009H108.669V7.31408H109.572C110.493 7.31408 110.628 7.51558 110.829 8.8908H112.134V4.41508H110.829C110.594 5.77266 110.511 5.95651 109.572 5.95651H108.669V2.62201H111.38C112.786 2.62201 113.037 3.02316 113.455 5.11894H114.912V1.19666H104.435V2.65544H105.941V10.7674ZM116.853 10.7674H118.36V2.65544H116.853V1.19666H127.33V5.11894H125.873C125.455 3.02316 125.205 2.62201 123.798 2.62201H121.087V5.95651H121.991C122.929 5.95651 123.012 5.77266 123.247 4.41508H124.552V8.8908H123.247C123.045 7.51558 122.911 7.31408 121.991 7.31408H121.087V10.8009H123.731C125.422 10.8009 125.623 10.1982 126.025 7.86751H127.481V12.2253H116.853V10.7674ZM133.12 10.7674H131.397V12.2253H137.589V10.7674H135.865V2.45394H136.284C137.639 2.45394 137.924 2.90616 138.543 5.63894H139.865V1.19666H129.121V5.63894H130.443C131.062 2.90616 131.347 2.45394 132.702 2.45394H133.12V10.7674Z" fill="#FFFFFF"/>
</svg>
