<?xml version="1.0" encoding="UTF-8"?>
<svg id="Layer_2" xmlns="http://www.w3.org/2000/svg" viewBox="0 0 447.75 98.62">
  <defs>
    <style>
      .cls-1 {
        fill: #ffffff;
      }
    </style>
  </defs>
  <g id="Layer_1-2" data-name="Layer_1">
    <g>
      <path class="cls-1" d="M74.83,27.94c-.13.76-.5,1.51-1.01,2.14l-1.01.76L30.91,62.93h32.72c2.14,0,3.4,1.76,3.02,3.78l-1.13,5.03c-.38,2.14-2.39,3.78-4.53,3.78H2.84c-2.01,0-3.15-1.76-2.77-3.78l2.01-9.06c.13-.76.63-1.76,1.38-2.39l.88-.75,39.39-31.84H13.29c-2.14,0-3.4-1.76-3.02-3.78l1.13-5.03c.38-2.14,2.39-3.78,4.53-3.78h58.65c1.64.38,2.64,1.89,2.27,3.65l-2.01,9.19Z"/>
      <path class="cls-1" d="M143.55,65.57c-5.54,5.79-13.09,9.94-21.02,9.94-4.66,0-9.94-1.76-11.96-4.28-1.38,1.01-2.77,2.01-3.4,2.39-2.64,1.26-5.66,2.01-8.81,2.01h-15.23c-7.55,0-12.71-4.41-11.58-10.07l8.56-40.27c1.13-5.54,8.31-10.07,15.86-10.07h15.23c3.78,0,6.92,1.13,9.06,3.02l3.52-3.02h17.62c2.14,0,3.4,1.76,3.02,3.78l-8.56,40.27c-.63,2.64,1.13,4.78,3.78,4.78,1.89,0,3.65-1.01,4.78-2.52l-.88,4.03ZM111.83,24.04c-3.52,0-6.92,3.27-7.8,7.17l-6.04,28.57c-.88,3.9,1.26,7.05,4.78,7.05s6.92-2.89,7.68-6.8l6.17-28.82c.88-3.9-1.26-7.17-4.78-7.17Z"/>
      <path class="cls-1" d="M211.13,65.57c-5.54,5.79-13.21,9.94-21.02,9.94-4.66,0-9.94-1.76-11.96-4.28-.75.5-1.51,1.13-2.14,1.51-2.89,1.64-6.42,2.77-10.07,2.77h-15.23c-7.55,0-12.71-4.53-11.58-10.07l9.94-46.57c.38-2.14,2.39-3.78,4.53-3.78h17.62c2.14,0,3.4,1.64,3.02,3.78l-8.68,40.65c-.88,4.03,1.26,7.17,4.78,7.17s6.92-3.15,7.8-7.17l8.68-40.65c.38-2.14,2.39-3.78,4.53-3.78h17.62c2.14,0,3.4,1.64,3.02,3.78l-8.56,40.27c-.63,2.64,1.13,4.91,3.78,4.91,1.89,0,3.65-1.01,4.78-2.52l-.88,4.03Z"/>
      <path class="cls-1" d="M280.48,31.09c-4.78,5.03-11.08,9.69-17.75,9.69-5.92.13-11.96-5.03-10.95-9.69.88-4.03-1.26-7.17-4.78-7.17s-6.92,3.15-7.8,7.17l-8.68,40.65c-.38,2.14-2.39,3.78-4.53,3.78h-17.62c-2.14,0-3.4-1.64-3.02-3.78l11.33-52.86c.38-2.14,2.39-3.78,4.53-3.78h17.62l2.27,2.89c2.89-1.76,6.54-2.89,10.32-2.89h9.69c7.55,0,12.71,4.53,11.58,10.07-.63,2.64,1.13,4.4,3.9,4.4,1.76,0,3.52-1.01,4.66-2.39l-.75,3.9Z"/>
      <path class="cls-1" d="M347.69,31.59c-3.15,3.15-6.8,5.79-10.7,7.55l-5.66,26.3c-1.13,5.54-8.31,10.07-15.86,10.07h-35.49c-7.55,0-12.71-4.53-11.58-10.07l8.56-40.27c1.13-5.54,8.31-10.07,15.86-10.07h35.49c7.55,0,12.71,4.53,11.58,10.07-.5,2.64,1.13,4.91,3.78,4.91,1.89,0,3.65-1.01,4.78-2.52l-.76,4.03ZM308.67,23.91c-3.52,0-6.92,3.15-7.8,7.17l-6.04,28.44c-.88,4.03,1.26,7.17,4.78,7.17s6.92-3.15,7.8-7.17l6.04-28.44c.88-4.03-1.26-7.17-4.78-7.17Z"/>
      <path class="cls-1" d="M397.9,7.3c-.5,2.27-3.27,3.65-5.29,3.65h-12.21c-4.66.13-8.81,4.53-9.69,8.94l-.88,4.28h17.24c2.52,0,3.02,1.13,2.39,3.65l-.75,3.65c-.5,2.14-1.64,3.78-3.9,3.78h-17.37l-9.69,45.31c-1.13,5.54-9.82,10.07-17.37,10.07s-13.84-4.15-16.87-9.94l.88-4.03c.5,1.51,1.89,2.52,3.65,2.52,2.64,0,5.29-2.26,5.92-4.91l13.47-63.3c1.26-5.92,10.32-10.95,15.61-10.95h31.97c3.9,0,3.9,2.52,3.15,5.92l-.25,1.38Z"/>
      <path class="cls-1" d="M447.11,7.3c-.5,2.27-3.27,3.65-5.29,3.65h-12.21c-4.66.13-8.81,4.53-9.69,8.94l-.88,4.28h17.24c2.52,0,3.02,1.13,2.39,3.65l-.75,3.65c-.5,2.14-1.64,3.78-3.9,3.78h-17.37l-9.69,45.31c-1.13,5.54-9.82,10.07-17.37,10.07s-13.84-4.15-16.87-9.94l.88-4.03c.5,1.51,1.89,2.52,3.65,2.52,2.64,0,5.29-2.26,5.92-4.91l13.47-63.3c1.26-5.92,10.32-10.95,15.61-10.95h31.97c3.9,0,3.9,2.52,3.15,5.92l-.25,1.38Z"/>
    </g>
    <path class="cls-1" d="M214.45,84.62H15.54C6.94,84.62,0,87.61,0,91.32v.6h0c0,3.71,6.94,6.7,15.54,6.7h427.23c2.77,0,4.99-.96,4.99-2.15h0c0-1.2-2.22-2.15-4.99-2.15h-205.85c0-5.26-9.99-9.57-22.47-9.69Z"/>
  </g>
</svg>